PathFileType	4	(X/Y/Z)	./resultDataOpenSim/trcMotMarkerGrf/sub06/qtm-15-06.trc
DataRate	CameraRate	NumFrames	NumMarkers	Units	OrigDataRate	OrigDataStartFrame	OrigNumFrames
250.000000	250.000000	11	24	m	250.000000	202	536
Frame#	Time	L.Toe.Tip			R.Toe.Tip			L.Ankle.Lat			R.Ankle.Lat			L.Ankle.Med			R.Ankle.Med			L.Heel			R.Heel			L.Knee.Lat			R.Knee.Lat			L.Knee.Med			R.Knee.Med			L.Thigh.Upper			R.Thigh.Upper			L.ASIS			R.ASIS			V.Sacral			L.Acromium			R.Acromium			C7			L.Elbow			R.Elbow			L.Wrist.Lat			R.Wrist.Lat
		X1	Y1	Z1	X2	Y2	Z2	X3	Y3	Z3	X4	Y4	Z4	X5	Y5	Z5	X6	Y6	Z6	X7	Y7	Z7	X8	Y8	Z8	X9	Y9	Z9	X10	Y10	Z10	X11	Y11	Z11	X12	Y12	Z12	X13	Y13	Z13	X14	Y14	Z14	X15	Y15	Z15	X16	Y16	Z16	X17	Y17	Z17	X18	Y18	Z18	X19	Y19	Z19	X20	Y20	Z20	X21	Y21	Z21	X22	Y22	Z22	X23	Y23	Z23	X24	Y24	Z24

202	0.804	0.053533097	-0.064709275	0.019822515	-0.23485654	0.11494746	0.1307662	-0.059333311	-0.031185088	-0.040084833	-0.27748853	0.2433261	0.15212696	-0.08407083	-0.013344461	0.042386482	-0.23478748	0.2383211	0.071418563	-0.14355969	-0.055769824	-0.018950507	-0.31323156	0.28129779	0.088268099	0.024109665	0.33462395	-0.047095793	0.061069387	0.37655375	0.22287944	-0.023845402	0.3383491	0.064294621	0.059232121	0.36102418	0.085959146	-0.0098296863	0.72141047	-0.14238409	-0.10011231	0.71684209	0.19316923	0.042458102	0.77731454	-0.08133852	-0.0082018157	0.77909257	0.15787724	-0.16192172	0.8469425	0.0042745475	0.010929532	1.2440307	-0.1618244	-0.061158794	1.255716	0.18939419	-0.10795024	1.2836782	-0.0062796775	-0.053144725	0.94332709	-0.23273953	-0.16440444	0.95980428	0.26424784	0.043527251	0.72167019	-0.26107283	0.00061455572	0.78093464	0.32817054
203	0.808	0.053524006	-0.064682645	0.019820662	-0.2137114	0.11426272	0.13297947	-0.059263008	-0.030943683	-0.040273071	-0.25992333	0.24138106	0.15414242	-0.084312332	-0.01288064	0.04197321	-0.21765363	0.23765655	0.072530849	-0.14347875	-0.05533598	-0.019073452	-0.29724059	0.27813046	0.090260534	0.024738632	0.33519017	-0.047879426	0.076176982	0.38184974	0.22229757	-0.024738635	0.33903766	0.063939581	0.074756895	0.36635603	0.084922539	-0.0041726986	0.72198917	-0.14273512	-0.09321345	0.71880413	0.19316503	0.048033658	0.7782099	-0.081534384	-0.0020042669	0.78136773	0.15804755	-0.15618045	0.84804684	0.0026846296	0.018946033	1.2452937	-0.16090735	-0.054618332	1.2566932	0.18976985	-0.10058234	1.2847889	-0.0059715034	-0.042459075	0.94355449	-0.23321995	-0.16030572	0.96212311	0.26380396	0.05835923	0.72361177	-0.26029024	0.00039875496	0.78018913	0.32982327
204	0.812	0.053523292	-0.064666376	0.019856461	-0.19238975	0.11346112	0.13524687	-0.059183727	-0.030665188	-0.04050106	-0.24226453	0.23920508	0.15622301	-0.084482202	-0.012292299	0.041504088	-0.20043068	0.23658658	0.073868631	-0.14338788	-0.054834012	-0.019232795	-0.28117985	0.27464246	0.09230403	0.025282464	0.3357856	-0.048754335	0.09104653	0.38730211	0.22165975	-0.025021358	0.33988368	0.063210043	0.089673851	0.37186102	0.08400794	0.0010950295	0.72258068	-0.14302686	-0.086293022	0.72068894	0.19313038	0.05371296	0.77902074	-0.08177517	0.0042489903	0.78358605	0.15816674	-0.1508512	0.84921162	0.0011068909	0.02679833	1.2465023	-0.16005913	-0.048106379	1.2575966	0.19013908	-0.093136731	1.2859241	-0.0056164406	-0.031946281	0.94368259	-0.23339875	-0.15625443	0.96421875	0.26347132	0.073272408	0.72567762	-0.25949484	0.00022089691	0.77954993	0.33153755
205	0.816	0.053492065	-0.064674897	0.019880747	-0.17093359	0.11258152	0.13754548	-0.059111677	-0.030338598	-0.040787245	-0.2244592	0.23675463	0.15829898	-0.08445976	-0.011584048	0.041034188	-0.18309915	0.23509756	0.075394906	-0.14328978	-0.054271511	-0.019447886	-0.2651081	0.27089003	0.0944547	0.025739381	0.33634087	-0.049703346	0.10568605	0.39289398	0.22095255	-0.02473032	0.34088784	0.06218338	0.10419416	0.37751474	0.08320328	0.0059586385	0.72318062	-0.14328132	-0.079379366	0.72252626	0.19310959	0.05935385	0.77975881	-0.08210519	0.010516743	0.7857194	0.15822126	-0.14550372	0.8503137	3.5251465e-05	0.034478073	1.2476614	-0.1592994	-0.041588513	1.2584256	0.19050325	-0.085633968	1.2870618	-0.005225623	-0.021614158	0.943747	-0.23335405	-0.15223548	0.96609282	0.26325825	0.088241506	0.72787339	-0.25865751	0.00010209435	0.77900732	0.33329344
206	0.82	0.053405287	-0.064711881	0.019845985	-0.14934794	0.11166235	0.13987427	-0.05904478	-0.029956721	-0.041129092	-0.20640953	0.23401455	0.16028471	-0.084306888	-0.010808511	0.040563873	-0.1656619	0.23325719	0.077026353	-0.14317911	-0.053659674	-0.019722348	-0.24904488	0.26691685	0.096706126	0.026103106	0.33684466	-0.050726073	0.12009773	0.3986091	0.22015772	-0.023972998	0.34200112	0.061016604	0.11842836	0.38328799	0.082519063	0.010448006	0.72381092	-0.14356929	-0.072483444	0.72432093	0.19315826	0.064832119	0.78041342	-0.082557898	0.016778755	0.78773084	0.15819796	-0.13988005	0.8513335	-0.00049448021	0.04201818	1.2487782	-0.15864283	-0.035039109	1.2591842	0.19086845	-0.078097565	1.2881892	-0.0048032871	-0.011417724	0.94382172	-0.2332943	-0.1482404	0.96775899	0.26317213	0.1032061	0.73018614	-0.25777723	4.9768945e-05	0.77854655	0.33507576
207	0.824	0.053289566	-0.064750494	0.019746845	-0.1276204	0.11072634	0.14224003	-0.058965508	-0.029517201	-0.041512947	-0.18806381	0.23105798	0.16215526	-0.084086228	-0.0099992208	0.040087079	-0.14810354	0.23113098	0.078711898	-0.14305173	-0.053003175	-0.020050659	-0.23286312	0.26271039	0.098979123	0.026393255	0.33732153	-0.051811035	0.1342839	0.40442024	0.21927111	-0.022887119	0.3431558	0.059853991	0.1322771	0.38914619	0.082029764	0.01466495	0.72449137	-0.14394006	-0.065599472	0.72605216	0.19327855	0.070102928	0.78096663	-0.083155506	0.023026303	0.78958906	0.15807884	-0.13403905	0.85231556	-0.00070641068	0.049441733	1.2498519	-0.15808879	-0.02845439	1.2598775	0.19123957	-0.070548668	1.2892961	-0.0043470614	-0.0012918179	0.94395326	-0.23330401	-0.14425277	0.96924116	0.26321995	0.11814984	0.73261665	-0.25682912	5.2944412e-05	0.77815001	0.33687262
208	0.828	0.053191459	-0.064761851	0.019618385	-0.10573109	0.10978647	0.14464597	-0.058854462	-0.029025881	-0.041921937	-0.16950445	0.22800923	0.16396365	-0.083833769	-0.0091673649	0.039594922	-0.13037963	0.22875024	0.080435072	-0.14290969	-0.052297596	-0.020426897	-0.21631587	0.25819068	0.10114995	0.026655692	0.33780422	-0.052932802	0.14825154	0.41029195	0.21830554	-0.021657296	0.34429432	0.058769176	0.14556331	0.39506048	0.08181727	0.018770023	0.72522918	-0.14436264	-0.058694004	0.72771253	0.19344009	0.075188854	0.78140713	-0.083905621	0.029259276	0.79127569	0.15784976	-0.12836353	0.85332116	-0.00078156322	0.056754152	1.2508774	-0.15762877	-0.021836901	1.2605047	0.19161847	-0.063000392	1.2903701	-0.003858323	0.0088264413	0.94411837	-0.23332509	-0.14023966	0.97057433	0.2634092	0.13311428	0.73518857	-0.25575573	9.1703282e-05	0.77780143	0.33867387
209	0.832	0.053125063	-0.064747131	0.019497304	-0.083629034	0.1088673	0.14709588	-0.05870124	-0.028492106	-0.042344004	-0.15088224	0.22495236	0.1657799	-0.083579153	-0.0083173203	0.039074357	-0.11243333	0.22614512	0.08216796	-0.14275728	-0.051537185	-0.020850489	-0.19923641	0.25329197	0.10313835	0.02693798	0.33832183	-0.054067483	0.16201391	0.41619044	0.21728153	-0.020434804	0.34535928	0.057782419	0.15820605	0.40100279	0.081877901	0.022829467	0.72601023	-0.14477249	-0.051699118	0.72931259	0.19364935	0.080182031	0.78174332	-0.084793867	0.035493736	0.79278708	0.157509	-0.12326152	0.85436842	-0.00079097751	0.063959823	1.2518567	-0.15725435	-0.015183723	1.2610546	0.19200667	-0.055455892	1.2913988	-0.003347674	0.018945735	0.94425522	-0.23330721	-0.13618736	0.97180362	0.26374743	0.14813323	0.73792632	-0.25452662	0.00014396687	0.77749285	0.34047197
210	0.836	0.053073955	-0.064723307	0.019395344	-0.061278735	0.10799767	0.14958229	-0.058506052	-0.027920603	-0.042781788	-0.13226269	0.22188606	0.16762953	-0.083335766	-0.0074484981	0.038513052	-0.094234779	0.22337418	0.083859065	-0.14259327	-0.050720203	-0.021325357	-0.18171333	0.2480635	0.10497836	0.027270584	0.33888881	-0.055196167	0.17559002	0.42208667	0.21621658	-0.019264394	0.3462841	0.056894628	0.1703674	0.40694689	0.082033415	0.026733767	0.72679612	-0.14517249	-0.044578141	0.73084417	0.19393851	0.085179498	0.78199949	-0.085790089	0.041779841	0.79413574	0.15707123	-0.11866715	0.85540495	-0.00072635487	0.071071632	1.2527976	-0.15695657	-0.0084850525	1.2615135	0.19240697	-0.047916484	1.2923737	-0.0028275214	0.029025266	0.94431832	-0.23326678	-0.13212578	0.97297699	0.2642386	0.16320171	0.74084458	-0.2531579	0.00019061135	0.77722789	0.3422634
211	0.84	0.053021357	-0.064697728	0.019303469	-0.038716336	0.10718346	0.15206272	-0.058278221	-0.027312943	-0.043248837	-0.11358031	0.21874973	0.16949608	-0.08308679	-0.0065657449	0.037904546	-0.075820764	0.22051358	0.085471226	-0.14240972	-0.049846701	-0.021852681	-0.16398343	0.24264624	0.10676576	0.027670025	0.33949533	-0.056296927	0.18899412	0.42795872	0.21511419	-0.018114311	0.34701739	0.056087715	0.18233303	0.41287053	0.082009733	0.030322613	0.72754423	-0.14565164	-0.037376482	0.73227714	0.19432107	0.090178972	0.78219684	-0.086866583	0.048217939	0.79535215	0.15656722	-0.11383712	0.85636313	-0.00050372179	0.078106885	1.253707	-0.1567231	-0.0017225827	1.2618769	0.1928273	-0.040390573	1.2932898	-0.002303607	0.039038132	0.94430321	-0.23323493	-0.12807736	0.97413614	0.26487302	0.17829815	0.74395167	-0.25167765	0.00022405774	0.77701931	0.34404508
212	0.844	0.052962343	-0.064668006	0.019209707	-0.016001929	0.10640812	0.1544713	-0.05803221	-0.026674934	-0.043751582	-0.094729091	0.21548009	0.17136376	-0.082799206	-0.0056804927	0.037251007	-0.057276557	0.21762118	0.086999828	-0.14220013	-0.048916847	-0.022426273	-0.14615893	0.23715575	0.10855011	0.028149046	0.34011578	-0.057345719	0.20221652	0.43379949	0.21396177	-0.016916041	0.34755012	0.055313373	0.1942151	0.4187425	0.081672334	0.03361173	0.72823745	-0.14624542	-0.030157046	0.73360416	0.19481882	0.095118314	0.78235145	-0.087997184	0.054936693	0.79647501	0.15603323	-0.10790201	0.85722701	1.1815042e-05	0.08508182	1.2545906	-0.15653723	0.0051266487	1.2621487	0.19328022	-0.032889814	1.2941438	-0.001776966	0.049003338	0.94423332	-0.23320016	-0.12402504	0.97531653	0.26562507	0.19339149	0.74723936	-0.25011035	0.00024419182	0.77688151	0.34580838
